<svg height="210" viewBox="0 0 210 210" width="210" xmlns="http://www.w3.org/2000/svg"><rect fill="none" height="7.93" rx="3.96" stroke="#505050" stroke-miterlimit="10" stroke-width="5" width="71.44" x="66.08" y="149.25"/><path d="m43.05 126.25a14.55 14.55 0 1 1 -14.55 14.55 14.56 14.56 0 0 1 14.55-14.55m0-5a19.55 19.55 0 1 0 19.55 19.55 19.55 19.55 0 0 0 -19.55-19.55z" fill="#505050"/><circle cx="43.05" cy="140.8" fill="#505050" r="8.71"/><path d="m145.66 148.62a3.85 3.85 0 1 1 -3.85 3.85 3.85 3.85 0 0 1 3.85-3.85m0-5a8.85 8.85 0 1 0 8.85 8.85 8.85 8.85 0 0 0 -8.85-8.85z" fill="#505050"/><path d="m69.15 149.82c-.16-.2-.36-.5-.51-.72s-.37-.53-.58-.81c3-11.12-.31-18.7-3.66-23.11-4.88-6.45-13-10.31-21.8-10.31-.7 0-1.4 0-2.1.08a23.27 23.27 0 0 0 -9.81 2.52c2.14-4.92 5.83-10.48 10.91-13.79 8.4-5.14 19.59-7.88 32.31-7.88 26.1 0 57.13 11.76 72.17 27.35 5.68 5.88 8.57 11.86 8.38 17.29l-.22 5.81a4.9 4.9 0 0 1 -3 2.82z" fill="#fff"/><path d="m73.91 98.3c25.5 0 55.75 11.43 70.37 26.59 3.62 3.75 7.89 9.48 7.68 15.46l-.2 5.3a2.46 2.46 0 0 1 -1 .93l-79.89.72c2-8.85.4-17.18-4.48-23.63-5.36-7.07-14.25-11.3-23.8-11.3-.76 0-1.52 0-2.28.08a40.58 40.58 0 0 0 -4.31.55 25.53 25.53 0 0 1 6.94-7.18c8.06-4.92 18.78-7.52 31-7.52m0-5c-12.41 0-24.19 2.48-33.67 8.29-7.06 4.59-11.31 12.78-13 18a1.5 1.5 0 0 0 1.42 2 1.45 1.45 0 0 0 .89-.32c2.92-2.25 6-3.4 11.16-3.77.64 0 1.28-.07 1.92-.07 14.51 0 28.3 11.68 22.94 30.67a1.57 1.57 0 0 0 .28 1.46c.91 1 1.65 2.82 2.84 2.82l82.77-.75a1.72 1.72 0 0 0 .44-.06 7.39 7.39 0 0 0 4.78-4.56 1.71 1.71 0 0 0 .09-.46l.22-6c.81-22.84-44.17-47.23-83.05-47.23z" fill="#505050"/><path d="m12.5 167.63 10.86 10 10.85-10 10.86 10 10.86-10 10.86 10 10.85-10 10.86 10 10.86-10 10.86 10 10.86-10 10.86 10 10.86-10 10.86 10 10.86-10 10.86 10 10.87-10 10.87 10" fill="#fff"/><g fill="none"><path d="m12.5 167.63 10.86 10 10.85-10 10.86 10 10.86-10 10.86 10 10.85-10 10.86 10 10.86-10 10.86 10 10.86-10 10.86 10 10.86-10 10.86 10 10.86-10 10.86 10 10.87-10 10.87 10" stroke="#505050" stroke-linecap="round" stroke-linejoin="round" stroke-width="5"/><path d="m163.43 62.29a10.3 10.3 0 0 1 -20.59 0c0-5.69 6.73-14.46 10.29-21.19 4.36 6.73 10.3 15.5 10.3 21.19z" stroke="#505050" stroke-linecap="round" stroke-linejoin="round" stroke-width="5"/><path d="m149.26 59.79s-1.31 5.78 4.11 7.09" stroke="#505050" stroke-linecap="round" stroke-linejoin="round" stroke-width="3"/><path d="m178.58 85.78a6.23 6.23 0 0 1 -12.46 0c0-3.44 4.07-8.74 6.23-12.81 2.65 4.03 6.23 9.37 6.23 12.81z" stroke="#505050" stroke-linecap="round" stroke-linejoin="round" stroke-width="5"/></g><path d="m110.17 105.57a8.44 8.44 0 0 1 -2.65-.43c-3.15-1-5.25-3.62-4.58-5.66.45-1.38 2.21-2.31 4.39-2.31a8.45 8.45 0 0 1 2.64.44c3.15 1 5.25 3.61 4.58 5.66-.45 1.38-2.21 2.3-4.38 2.3z" fill="#fff"/><path d="m107.33 99.67a6.21 6.21 0 0 1 1.87.31c2.17.71 3 2.16 3 2.5a2.8 2.8 0 0 1 -2 .59 5.91 5.91 0 0 1 -1.87-.31c-2.17-.71-3-2.16-3-2.49a2.74 2.74 0 0 1 2-.6m0-5c-3.21 0-6 1.51-6.77 4-1.1 3.4 1.66 7.34 6.18 8.82a11.3 11.3 0 0 0 3.42.55c3.21 0 6-1.51 6.77-4 1.11-3.39-1.66-7.34-6.18-8.81a11 11 0 0 0 -3.42-.56z" fill="#505050"/><path d="m119.12 95a12 12 0 0 0 -16.24-4.8" fill="none" stroke="#ff5816" stroke-linecap="round" stroke-miterlimit="10" stroke-width="5"/><path d="m129.34 89.5a23.57 23.57 0 0 0 -32-9.44" fill="none" stroke="#ff5816" stroke-linecap="round" stroke-miterlimit="10" stroke-width="5"/><path d="m139.51 84a35.08 35.08 0 0 0 -47.6-14" fill="none" stroke="#ff5816" stroke-linecap="round" stroke-miterlimit="10" stroke-width="5"/><path d="m43.21 135.2a.48.48 0 0 1 -.47-.47v-8.81a.47.47 0 0 1 .94 0v8.81a.48.48 0 0 1 -.47.47z" fill="#fff"/><path d="m43.21 123a3 3 0 0 0 -3 3v8.81a3 3 0 0 0 5.94 0v-8.81a3 3 0 0 0 -3-3z" fill="#505050"/><path d="m56.39 149.07a.44.44 0 0 1 -.27-.09l-7.21-5.06a.47.47 0 0 1 .28-.85.38.38 0 0 1 .26.08l7.21 5.06a.49.49 0 0 1 .12.66.5.5 0 0 1 -.39.2z" fill="#fff"/><path d="m49.19 140.57a3 3 0 0 0 -1.71 5.4l7.21 5.03a3 3 0 0 0 1.7.54 3 3 0 0 0 1.71-5.41l-7.21-5.06a3 3 0 0 0 -1.7-.53z" fill="#505050"/><path d="m30.18 149.72a.48.48 0 0 1 -.37-.16.49.49 0 0 1 .06-.67l6.7-5.71a.45.45 0 0 1 .3-.11.47.47 0 0 1 .36.16.48.48 0 0 1 0 .67l-6.7 5.71a.41.41 0 0 1 -.35.11z" fill="#fff"/><path d="m36.87 140.57a3 3 0 0 0 -1.93.71l-6.7 5.72a3 3 0 0 0 3.86 4.53l6.7-5.72a3 3 0 0 0 .33-4.19 2.94 2.94 0 0 0 -2.26-1z" fill="#505050"/><path d="m64.46 124.27h45.14s25.76-.66 26.2 24" fill="none" stroke="#505050" stroke-miterlimit="10" stroke-width="5"/></svg>